<mxfile modified="2022-05-20T01:24:21.404Z" host="app.diagrams.net" agent="5.0 (Windows NT 10.0; Win64; x64) AppleWebKit/537.36 (KHTML, like Gecko) Chrome/101.0.4951.54 Safari/537.36" etag="O4Yx0zt2SwjDUMpoU-00" compressed="false" version="18.0.8" type="google">
  <diagram id="d0OWMO7HLz8ORz33MV6Q" name="Functionality/System Logical Module/Modules">
    <mxGraphModel grid="1" page="1" gridSize="10" guides="1" tooltips="1" connect="1" arrows="1" fold="1" pageScale="1" pageWidth="827" pageHeight="1169" math="0" shadow="0">
      <root>
        <mxCell id="DmzuZqZtZWplpCiVpEfP-0" />
        <mxCell id="CSP66NI3M7eEUCRHC4Pb-2" value="Diagram/Use Cases" parent="DmzuZqZtZWplpCiVpEfP-0" />
        <mxCell id="LEhCc9eVq7zMtWwDI35S-4" value="" style="endArrow=block;endFill=0;endSize=12;html=1;strokeColor=#000000;fontSize=12;" edge="1" parent="CSP66NI3M7eEUCRHC4Pb-2">
          <mxGeometry width="160" relative="1" as="geometry">
            <mxPoint x="140" y="330" as="sourcePoint" />
            <mxPoint x="140" y="280" as="targetPoint" />
          </mxGeometry>
        </mxCell>
        <mxCell id="LEhCc9eVq7zMtWwDI35S-5" value="" style="endArrow=open;endFill=1;endSize=12;html=1;strokeColor=#000000;fontSize=12;entryX=0;entryY=0.5;entryDx=0;entryDy=0;" edge="1" parent="CSP66NI3M7eEUCRHC4Pb-2" target="LEhCc9eVq7zMtWwDI35S-6">
          <mxGeometry width="160" relative="1" as="geometry">
            <mxPoint x="160" y="360" as="sourcePoint" />
            <mxPoint x="240" y="360" as="targetPoint" />
          </mxGeometry>
        </mxCell>
        <mxCell id="LEhCc9eVq7zMtWwDI35S-6" value="List Summary Information on Modules" style="ellipse;whiteSpace=wrap;html=1;comic=1;strokeColor=#d6b656;strokeWidth=2;fontSize=12;align=center;fillColor=none;" vertex="1" parent="CSP66NI3M7eEUCRHC4Pb-2">
          <mxGeometry x="240" y="240" width="120" height="40" as="geometry" />
        </mxCell>
        <mxCell id="LEhCc9eVq7zMtWwDI35S-7" value="" style="endArrow=open;endFill=1;endSize=12;html=1;strokeColor=#000000;fontSize=12;entryX=0;entryY=0.5;entryDx=0;entryDy=0;" edge="1" parent="CSP66NI3M7eEUCRHC4Pb-2" target="LEhCc9eVq7zMtWwDI35S-6">
          <mxGeometry width="160" relative="1" as="geometry">
            <mxPoint x="160" y="219.9999999999999" as="sourcePoint" />
            <mxPoint x="250" y="280" as="targetPoint" />
          </mxGeometry>
        </mxCell>
        <mxCell id="LEhCc9eVq7zMtWwDI35S-8" value="Public User" style="shape=umlActor;verticalLabelPosition=bottom;labelBackgroundColor=#ffffff;verticalAlign=top;html=1;comic=0;strokeColor=#000000;strokeWidth=1;fillColor=none;gradientColor=#ffffff;fontSize=12;align=center;" vertex="1" parent="CSP66NI3M7eEUCRHC4Pb-2">
          <mxGeometry x="130" y="200" width="20" height="40" as="geometry" />
        </mxCell>
        <mxCell id="LEhCc9eVq7zMtWwDI35S-9" value="Authenticated&lt;br style=&quot;font-size: 12px;&quot;&gt;User" style="shape=umlActor;verticalLabelPosition=bottom;labelBackgroundColor=#ffffff;verticalAlign=top;html=1;comic=0;strokeColor=#000000;strokeWidth=1;fillColor=none;gradientColor=#ffffff;fontSize=12;align=center;" vertex="1" parent="CSP66NI3M7eEUCRHC4Pb-2">
          <mxGeometry x="130" y="340" width="20" height="40" as="geometry" />
        </mxCell>
        <mxCell id="LEhCc9eVq7zMtWwDI35S-12" value="View single Module&#39;s Information" style="ellipse;whiteSpace=wrap;html=1;comic=1;strokeColor=#d6b656;strokeWidth=2;fontSize=12;align=center;fillColor=none;" vertex="1" parent="CSP66NI3M7eEUCRHC4Pb-2">
          <mxGeometry x="240" y="300" width="120" height="40" as="geometry" />
        </mxCell>
        <mxCell id="LEhCc9eVq7zMtWwDI35S-13" value="" style="endArrow=open;endFill=1;endSize=12;html=1;strokeColor=#000000;fontSize=12;entryX=0;entryY=0.5;entryDx=0;entryDy=0;" edge="1" parent="CSP66NI3M7eEUCRHC4Pb-2" target="LEhCc9eVq7zMtWwDI35S-12">
          <mxGeometry width="160" relative="1" as="geometry">
            <mxPoint x="160" y="360" as="sourcePoint" />
            <mxPoint x="250" y="230" as="targetPoint" />
          </mxGeometry>
        </mxCell>
        <mxCell id="LEhCc9eVq7zMtWwDI35S-14" value="Enable/Disable a Module" style="ellipse;whiteSpace=wrap;html=1;comic=1;strokeColor=#d6b656;strokeWidth=2;fontSize=12;align=center;fillColor=none;" vertex="1" parent="CSP66NI3M7eEUCRHC4Pb-2">
          <mxGeometry x="240" y="480" width="120" height="40" as="geometry" />
        </mxCell>
        <mxCell id="LEhCc9eVq7zMtWwDI35S-15" value="" style="endArrow=open;endFill=1;endSize=12;html=1;strokeColor=#000000;fontSize=12;entryX=0;entryY=0.5;entryDx=0;entryDy=0;" edge="1" parent="CSP66NI3M7eEUCRHC4Pb-2" target="LEhCc9eVq7zMtWwDI35S-14">
          <mxGeometry width="160" relative="1" as="geometry">
            <mxPoint x="160" y="500" as="sourcePoint" />
            <mxPoint x="250" y="390" as="targetPoint" />
          </mxGeometry>
        </mxCell>
        <mxCell id="LEhCc9eVq7zMtWwDI35S-16" value="Ssytem&amp;nbsp;&lt;br style=&quot;font-size: 12px;&quot;&gt;Administrator&amp;nbsp;&lt;br style=&quot;font-size: 12px;&quot;&gt;Specialist" style="shape=umlActor;verticalLabelPosition=bottom;labelBackgroundColor=#ffffff;verticalAlign=top;html=1;comic=0;strokeColor=#000000;strokeWidth=1;fillColor=none;gradientColor=#ffffff;fontSize=12;align=center;" vertex="1" parent="CSP66NI3M7eEUCRHC4Pb-2">
          <mxGeometry x="130" y="480" width="20" height="40" as="geometry" />
        </mxCell>
        <mxCell id="LEhCc9eVq7zMtWwDI35S-22" value="" style="endArrow=block;endFill=0;endSize=12;html=1;strokeColor=#000000;fontSize=12;" edge="1" parent="CSP66NI3M7eEUCRHC4Pb-2">
          <mxGeometry width="160" relative="1" as="geometry">
            <mxPoint x="140" y="470" as="sourcePoint" />
            <mxPoint x="140" y="420" as="targetPoint" />
          </mxGeometry>
        </mxCell>
        <mxCell id="UksWfP1gVPME-j8JooyC-0" value="Title/Diagram" parent="DmzuZqZtZWplpCiVpEfP-0" />
        <mxCell id="UksWfP1gVPME-j8JooyC-1" value="&lt;font style=&quot;font-size: 12px&quot;&gt;&lt;i style=&quot;font-weight: normal&quot;&gt;&lt;span style=&quot;font-size: 12px&quot;&gt;Diagram: Base&amp;nbsp;&lt;/span&gt;&lt;/i&gt;&lt;span style=&quot;font-style: italic ; font-weight: 400&quot;&gt;System&lt;/span&gt;&lt;span style=&quot;font-style: italic ; font-weight: 400&quot;&gt;&amp;nbsp;&lt;/span&gt;&lt;i style=&quot;font-weight: normal&quot;&gt;&lt;span style=&quot;font-size: 12px&quot;&gt;Logical Module -&amp;nbsp;&lt;/span&gt;&lt;span style=&quot;font-size: 12px&quot;&gt;Functionality -&amp;nbsp;&lt;/span&gt;System Modules&lt;/i&gt;&lt;/font&gt;" style="text;strokeColor=none;fillColor=none;html=1;fontSize=12;fontStyle=1;verticalAlign=middle;align=left;shadow=0;glass=0;comic=0;opacity=30;fontColor=#808080;" vertex="1" parent="UksWfP1gVPME-j8JooyC-0">
          <mxGeometry x="120" y="585" width="520" height="20" as="geometry" />
        </mxCell>
        <mxCell id="DmzuZqZtZWplpCiVpEfP-1" value="About" parent="DmzuZqZtZWplpCiVpEfP-0" />
        <UserObject label="" tooltip="ABOUT&#xa;&#xa;Systems that are expected to be maintainable and improvable over a long duration are expected to broken down into separate Logical Modules to keep them from growing into one un-maintainable, monolithic &quot;ball of mud&quot;. &#xa;&#xa;&#xa;&#xa;The first Logical Module (the &quot;Core&quot; module deals with issues common to just about all IT systems: diagnostics, errors, sessions, identity, authorisation, commands, system and application context and status information, tenancies, media, etc.&#xa;&#xa;&#xa;&#xa;By reusing and leveraging common Core functionality and models, other modules can remain focused on a specific business problem (Schooling, Pharmacies, Food handling, etc.) while remaining easy and cost effective to develop and extend. &#xa;&#xa;&#xa;Note:&#xa;as shown more clearly in the Development View, Logical Modules are made up of a set of Assemblies." id="O1NMRd1u0_kbX6DRId-m-0">
          <mxCell style="shape=image;html=1;verticalAlign=top;verticalLabelPosition=bottom;labelBackgroundColor=#ffffff;imageAspect=0;aspect=fixed;image=https://cdn1.iconfinder.com/data/icons/hawcons/32/699014-icon-28-information-128.png;shadow=0;dashed=0;fontFamily=Helvetica;fontSize=12;fontColor=#000000;align=center;strokeColor=#000000;fillColor=#505050;dashPattern=1 1;" vertex="1" parent="DmzuZqZtZWplpCiVpEfP-1">
            <mxGeometry x="660" y="575" width="20" height="20" as="geometry" />
          </mxCell>
        </UserObject>
      </root>
    </mxGraphModel>
  </diagram>
</mxfile>
